<svg id="Capa_1" data-name="Capa 1" xmlns="http://www.w3.org/2000/svg" viewBox="0 0 521.1 145.8"><defs><style>.cls-1{fill:#fff;}.cls-2{fill:#5fb230;}</style></defs><path class="cls-1" d="M28.35,26.71V7.38h35V26.71Zm0,84.18V34.27h35v76.62Z"/><path class="cls-1" d="M70.93,110.89V34.27h33.9V43.8h.28q3.23-4.35,10.92-7.71a52.72,52.72,0,0,1,20.73-3.92q15.42,0,24.24,7,9.66,7.71,9.66,23v48.74h-35V71.25q0-13.86-13.44-13.87-16.26,0-16.25,18.21v35.3Z"/><path class="cls-1" d="M178.22,110.89V7.38h35V43q9-10.78,30.51-10.79,18.57,0,30.38,9.81,13.35,10.92,13.35,31.09t-13.3,31.1Q262.4,114,243.92,114q-21.85,0-31.52-11.2h-.28v8.12Zm35-37.82q0,17.37,19.19,17.37t19.19-17.37q0-7.69-4.76-12.32-5.19-5.05-14.29-5Q213.25,55.7,213.24,73.07Z"/><path class="cls-1" d="M286.64,72.51q0-21.29,13.66-31.3t43.07-10q29.42,0,43.07,10t13.66,31.3q0,21.3-13.66,31.38T343.37,114Q314,114,300.3,103.89T286.64,72.51Zm36.7,0q0,18.78,20,18.77t20-18.77q0-18.63-20-18.63T323.34,72.51Z"/><path class="cls-1" d="M477.14,70.83l35.25-36.56H474.2L453.38,54.82l15.08,17.11-15,17.37,19.71,21.59H513Z"/><polyline class="cls-2" points="450.38 54.82 465.46 71.93 450.42 89.3 450.42 89.3 408.42 137.79 366.96 137.79 408.49 90.65 425.96 70.83 408.54 51.85 367.71 7.38 408.59 7.38"/></svg>